<?xml version="1.0" encoding="UTF-8" standalone="no"?>
<svg width="20px" height="18px" viewBox="0 0 20 18" version="1.1" xmlns="http://www.w3.org/2000/svg" xmlns:xlink="http://www.w3.org/1999/xlink">
    <!-- Generator: Sketch 41.2 (35397) - http://www.bohemiancoding.com/sketch -->
    <title>Shape</title>
    <desc>Created with Sketch.</desc>
    <defs></defs>
    <g id="Page-1" stroke="none" stroke-width="1" fill="none" fill-rule="evenodd">
        <path d="M19.511,16.98 L10.604,0.348 C10.4795928,0.131975869 10.2492861,-0.00115951932 10,-0.00115951932 C9.75071387,-0.00115951932 9.52040718,0.131975869 9.396,0.348 L0.49,16.98 C0.36902994,17.1910124 0.370940063,17.4507892 0.495,17.66 C0.62,17.871 0.847,18 1.093,18 L18.907,18 C19.1524302,18.0003798 19.3798095,17.8711006 19.505,17.66 C19.6289529,17.4508532 19.6312431,17.1913014 19.511,16.98 Z M11,16 L9,16 L9,14 L11,14 L11,16 Z M11,12.5 L9,12.5 L9,6 L11,6 L11,12.5 Z" id="Shape" fill="#FF0000"></path>
    </g>
</svg>